<svg width="16" height="16" viewBox="0 0 16 16" fill="none" xmlns="http://www.w3.org/2000/svg">
  <path fill-rule="evenodd" clip-rule="evenodd" d="M8 0C3.58 0 0 3.58 0 8c0 3.54 2.29 6.53 5.47 7.59.4.07.55-.17.55-.38v-1.38c-2.23.48-2.7-1.08-2.7-1.08-.36-.92-.88-1.17-.88-1.17-.72-.49.06-.48.06-.48.8.06 1.22.82 1.22.82.71 1.22 1.87.87 2.33.66.07-.52.28-.87.51-1.07-1.78-.2-3.64-.89-3.64-3.95 0-.87.31-1.58.82-2.14-.08-.2-.36-1.02.08-2.13 0 0 .67-.21 2.2.82a7.7 7.7 0 0 1 2-.27c.68 0 1.36.09 2 .27 1.53-1.03 2.2-.82 2.2-.82.44 1.11.16 1.93.08 2.13.51.56.82 1.27.82 2.14 0 3.07-1.87 3.75-3.65 3.95.29.25.54.73.54 1.47v2.18c0 .21.15.46.55.38A8.013 8.013 0 0 0 16 8c0-4.42-3.58-8-8-8z" fill="white"/>
</svg>
